HIERARCHY
ROOT hip
{
  OFFSET 0.00112043 5.09927 -9.65472
  CHANNELS 6 Xposition Yposition Zposition Zrotation Xrotation Yrotation
  JOINT abdomen
  {
    OFFSET 0 -1.186 -1.5018
    CHANNELS 3 Zrotation Xrotation Yrotation
    JOINT abdomen2
    {
      OFFSET 0 9.964 0.2134
      CHANNELS 3 Zrotation Xrotation Yrotation
      JOINT chest
      {
        OFFSET 0 13.134 -3.2573
        CHANNELS 3 Zrotation Xrotation Yrotation
        JOINT neck
        {
          OFFSET 0 20.686 -1.6905
          CHANNELS 3 Zrotation Xrotation Yrotation
          JOINT head
          {
            OFFSET 0 7.238 -0.1237
            CHANNELS 3 Zrotation Xrotation Yrotation
            End Site
            {
              OFFSET 0 0 0
            }
          }
        }
        JOINT lCollar
        {
          OFFSET 1.7069 20.075 5.0056
          CHANNELS 3 Zrotation Xrotation Yrotation
          JOINT lShldr
          {
            OFFSET 13.6458 -0.047 -4.849
            CHANNELS 3 Zrotation Xrotation Yrotation
            JOINT lForeArm
            {
              OFFSET 28.3255 -0.9759 2.2888
              CHANNELS 3 Zrotation Xrotation Yrotation
              JOINT lHand
              {
                OFFSET 22.1583 -0.53 10.8316
                CHANNELS 3 Zrotation Xrotation Yrotation
                JOINT lThumb1
                {
                  OFFSET 0.786 0.112 2.5817
                  CHANNELS 3 Zrotation Xrotation Yrotation
                  JOINT lThumb2
                  {
                    OFFSET 0.3601 -0.878 4.2331
                    CHANNELS 3 Zrotation Xrotation Yrotation
                    JOINT lThumb2_End
                    {
                      OFFSET 1.8127 -1.216 2.2227
                      CHANNELS 3 Zrotation Xrotation Yrotation
                      End Site
                      {
                        OFFSET 0.0181 -0.0122 0.0222
                      }
                    }
                  }
                }
                JOINT lCarpal1
                {
                  OFFSET 0.9571 1.114 1.7695
                  CHANNELS 3 Zrotation Xrotation Yrotation
                  JOINT lIndex1
                  {
                    OFFSET 4.1246 0.487 4.1451
                    CHANNELS 3 Zrotation Xrotation Yrotation
                    JOINT lIndex2
                    {
                      OFFSET 3.4052 -1.454 2.7682
                      CHANNELS 3 Zrotation Xrotation Yrotation
                      JOINT lIndex2_End
                      {
                        OFFSET 1.4531 -1.795 1.2713
                        CHANNELS 3 Zrotation Xrotation Yrotation
                        End Site
                        {
                          OFFSET 0.0145 -0.0179 0.0127
                        }
                      }
                    }
                  }
                  JOINT lMid1
                  {
                    OFFSET 5.6954 0.21 2.1184
                    CHANNELS 3 Zrotation Xrotation Yrotation
                    JOINT lMid2
                    {
                      OFFSET 3.9766 -1.54 2.3863
                      CHANNELS 3 Zrotation Xrotation Yrotation
                      JOINT lMid2_End
                      {
                        OFFSET 1.4042 -1.926 1.125
                        CHANNELS 3 Zrotation Xrotation Yrotation
                        End Site
                        {
                          OFFSET 0.014 -0.0193 0.0113
                        }
                      }
                    }
                  }
                }
                JOINT lCarpal2
                {
                  OFFSET 2.0956 0.66 -0.3894
                  CHANNELS 3 Zrotation Xrotation Yrotation
                  JOINT lRing1
                  {
                    OFFSET 5.0395 -0.09 2.4971
                    CHANNELS 3 Zrotation Xrotation Yrotation
                    JOINT lRing2
                    {
                      OFFSET 3.7921 -1.552 1.4806
                      CHANNELS 3 Zrotation Xrotation Yrotation
                      JOINT lRing2_End
                      {
                        OFFSET 1.4655 -1.808 0.9609
                        CHANNELS 3 Zrotation Xrotation Yrotation
                        End Site
                        {
                          OFFSET 0.0147 -0.0181 0.0096
                        }
                      }
                    }
                  }
                  JOINT lPinky1
                  {
                    OFFSET 4.9141 -1.269 0.3591
                    CHANNELS 3 Zrotation Xrotation Yrotation
                    JOINT lPinky2
                    {
                      OFFSET 3.1477 -1.685 0.8462
                      CHANNELS 3 Zrotation Xrotation Yrotation
                      JOINT lPinky2_End
                      {
                        OFFSET 0.8055 -1.585 0.7955
                        CHANNELS 3 Zrotation Xrotation Yrotation
                        End Site
                        {
                          OFFSET 0.0081 -0.0158 0.008
                        }
                      }
                    }
                  }
                }
              }
            }
          }
        }
        JOINT rCollar
        {
          OFFSET -1.7069 20.075 5.0056
          CHANNELS 3 Zrotation Xrotation Yrotation
          JOINT rShldr
          {
            OFFSET -13.6458 -0.047 -4.849
            CHANNELS 3 Zrotation Xrotation Yrotation
            JOINT rForeArm
            {
              OFFSET -28.3255 -0.9759 2.2888
              CHANNELS 3 Zrotation Xrotation Yrotation
              JOINT rHand
              {
                OFFSET -22.1583 -0.53 10.8316
                CHANNELS 3 Zrotation Xrotation Yrotation
                JOINT rThumb1
                {
                  OFFSET -0.786 0.112 2.5817
                  CHANNELS 3 Zrotation Xrotation Yrotation
                  JOINT rThumb2
                  {
                    OFFSET -0.3601 -0.878 4.2331
                    CHANNELS 3 Zrotation Xrotation Yrotation
                    JOINT rThumb2_End
                    {
                      OFFSET -1.8127 -1.216 2.2227
                      CHANNELS 3 Zrotation Xrotation Yrotation
                      End Site
                      {
                        OFFSET -0.0181 -0.0122 0.0222
                      }
                    }
                  }
                }
                JOINT rCarpal1
                {
                  OFFSET -0.9571 1.114 1.7695
                  CHANNELS 3 Zrotation Xrotation Yrotation
                  JOINT rIndex1
                  {
                    OFFSET -4.1246 0.487 4.1451
                    CHANNELS 3 Zrotation Xrotation Yrotation
                    JOINT rIndex2
                    {
                      OFFSET -3.4052 -1.454 2.7682
                      CHANNELS 3 Zrotation Xrotation Yrotation
                      JOINT rIndex2_End
                      {
                        OFFSET -1.4531 -1.795 1.2713
                        CHANNELS 3 Zrotation Xrotation Yrotation
                        End Site
                        {
                          OFFSET -0.0145 -0.018 0.0127
                        }
                      }
                    }
                  }
                  JOINT rMid1
                  {
                    OFFSET -5.6954 0.21 2.1184
                    CHANNELS 3 Zrotation Xrotation Yrotation
                    JOINT rMid2
                    {
                      OFFSET -3.9766 -1.54 2.3863
                      CHANNELS 3 Zrotation Xrotation Yrotation
                      JOINT rMid2_End
                      {
                        OFFSET -1.4042 -1.926 1.125
                        CHANNELS 3 Zrotation Xrotation Yrotation
                        End Site
                        {
                          OFFSET -0.014 -0.0193 0.0113
                        }
                      }
                    }
                  }
                }
                JOINT rCarpal2
                {
                  OFFSET -2.0956 0.66 -0.3894
                  CHANNELS 3 Zrotation Xrotation Yrotation
                  JOINT rRing1
                  {
                    OFFSET -5.0395 -0.09 2.4971
                    CHANNELS 3 Zrotation Xrotation Yrotation
                    JOINT rRing2
                    {
                      OFFSET -3.7921 -1.552 1.4806
                      CHANNELS 3 Zrotation Xrotation Yrotation
                      JOINT rRing2_End
                      {
                        OFFSET -1.4655 -1.808 0.9609
                        CHANNELS 3 Zrotation Xrotation Yrotation
                        End Site
                        {
                          OFFSET -0.0147 -0.0181 0.0096
                        }
                      }
                    }
                  }
                  JOINT rPinky1
                  {
                    OFFSET -4.9141 -1.269 0.3592
                    CHANNELS 3 Zrotation Xrotation Yrotation
                    JOINT rPinky2
                    {
                      OFFSET -3.1477 -1.685 0.8462
                      CHANNELS 3 Zrotation Xrotation Yrotation
                      JOINT rPinky2_End
                      {
                        OFFSET -0.8055 -1.585 0.7955
                        CHANNELS 3 Zrotation Xrotation Yrotation
                        End Site
                        {
                          OFFSET -0.0081 -0.0158 0.008
                        }
                      }
                    }
                  }
                }
              }
            }
          }
        }
      }
    }
  }
  JOINT lThigh
  {
    OFFSET 8.367 -8.2066 0.5982
    CHANNELS 3 Zrotation Xrotation Yrotation
    JOINT lShin
    {
      OFFSET 2.1923 -43.463 -0.4932
      CHANNELS 3 Zrotation Xrotation Yrotation
      JOINT lFoot
      {
        OFFSET 0.7333 -45.8593 -2.6451
        CHANNELS 3 Zrotation Xrotation Yrotation
        End Site
        {
          OFFSET 2.6618 -4.2699 12.3931
        }
      }
    }
  }
  JOINT rThigh
  {
    OFFSET -8.367 -8.2066 0.5982
    CHANNELS 3 Zrotation Xrotation Yrotation
    JOINT rShin
    {
      OFFSET -2.1923 -43.463 -0.4931
      CHANNELS 3 Zrotation Xrotation Yrotation
      JOINT rFoot
      {
        OFFSET -0.7333 -45.8593 -2.6451
        CHANNELS 3 Zrotation Xrotation Yrotation
        End Site
        {
          OFFSET -2.6618 -4.2699 12.3931
        }
      }
    }
  }
}
MOTION
Frames:	6
Frame Time:	0.0333333
0 91.7903 2.51682 0 0 -0 0 0 -0 0 0 -0 0 0 -0 0 0 -0 0 0 -0 0 0 -0 1.66051 0.0835086 5.75766 -0.0175111 0.895433 15.7816 7.95139e-016 -1.98785e-016 -0 5.46658e-016 -3.97569e-016 -0 5.96354e-016 0 -0 3.97569e-016 1.98785e-016 9.54166e-015 1.49089e-016 -3.97569e-016 -0 6.4605e-016 0 3.18055e-015 5.96354e-016 0 3.18055e-015 8.94531e-016 -1.98785e-016 6.36111e-015 6.4605e-016 0 3.18055e-015 5.96354e-016 0 3.18055e-015 8.94531e-016 -1.98785e-016 6.36111e-015 1.49089e-016 -3.97569e-016 -0 6.4605e-016 0 3.18055e-015 5.96354e-016 0 3.18055e-015 8.94531e-016 -1.98785e-016 6.36111e-015 6.4605e-016 0 3.18055e-015 5.96354e-016 0 3.18055e-015 8.94531e-016 -1.98785e-016 6.36111e-015 0 0 -0 -1.4496 0.0636048 -5.0245 -1.74811 1.20616 -16.8394 -1.19271e-015 1.98785e-016 -3.18055e-015 -3.97569e-016 1.98785e-016 -3.18055e-015 -2.98177e-016 1.98785e-016 -3.18055e-015 -2.98177e-016 3.97569e-016 -0 4.96962e-016 0 -6.36111e-015 -9.93923e-017 3.97569e-016 -0 -8.94531e-016 5.96354e-016 -0 -3.97569e-016 3.97569e-016 -0 -9.93923e-017 3.97569e-016 -0 -8.94531e-016 5.96354e-016 -0 -3.97569e-016 3.97569e-016 -0 4.96962e-016 0 -6.36111e-015 -9.93923e-017 3.97569e-016 -0 -8.94531e-016 5.96354e-016 -0 -3.97569e-016 3.97569e-016 -0 -9.93923e-017 3.97569e-016 -0 -8.94531e-016 5.96354e-016 -0 -3.97569e-016 3.97569e-016 -0 -4.66111 -0.998717 0.12318 0.00986924 1.54847 0.176523 4.65186 -0.572283 -0.254274 4.66111 -0.998765 -0.123176 -0.00986867 1.54869 -0.176537 -4.65186 -0.572453 0.25427 
9.0083 -8.91729 10.7636 105.415 -4.35277 164.598 -6.06064e-007 20.7994 1.33824e-006 3.60572e-006 41.5988 9.99716e-006 7.24606e-006 41.5988 3.14859e-006 -0.00028775 31 0.000147733 3.97636e-006 -35.0004 1.35376e-005 -2.56663e-006 -1.27704e-005 -4.05442e-006 -45.9855 -2.65553 -85.9881 -16.6063 13.6966 -128.964 49.7951 14.4274 13.6601 -6.36111e-015 1.59028e-015 -3.18055e-015 -8.69118e-007 -4.42761e-006 -7.33333e-007 8.89623e-007 -1.32418e-006 -5.72952e-007 -3.18055e-015 1.59028e-015 -6.36111e-015 -1.59028e-015 3.18055e-015 3.18055e-015 -8.69118e-007 -4.42761e-006 -7.33333e-007 8.89623e-007 -1.32418e-006 -5.72952e-007 -1.59028e-015 3.18055e-015 3.18055e-015 -8.69118e-007 -4.42761e-006 -7.33333e-007 8.89623e-007 -1.32418e-006 -5.72952e-007 -3.18055e-015 1.59028e-015 -6.36111e-015 -1.59028e-015 3.18055e-015 3.18055e-015 -8.69118e-007 -4.42761e-006 -7.33333e-007 8.89623e-007 -1.32418e-006 -5.72952e-007 -1.59028e-015 3.18055e-015 3.18055e-015 -8.69118e-007 -4.42761e-006 -7.33333e-007 8.89623e-007 -1.32418e-006 -5.72952e-007 8.25995 3.72197 17.8076 47.1052 15.8939 53.0407 2.86229 2.79902 -10.7784 39.1691 16.5901 -24.0707 -1.02983e-006 1.01923e-006 -8.20632e-007 3.51797e-006 -2.1143e-006 -8.93011e-006 4.01167e-006 6.11939e-007 -9.1036e-006 3.64147e-031 -4.37326e-015 4.77083e-015 -1.02983e-006 1.01923e-006 -8.20632e-007 3.51797e-006 -2.1143e-006 -8.93011e-006 4.01167e-006 6.11939e-007 -9.1036e-006 -1.02983e-006 1.01923e-006 -8.20632e-007 3.51797e-006 -2.1143e-006 -8.93011e-006 4.01167e-006 6.11939e-007 -9.1036e-006 3.64147e-031 -4.37326e-015 4.77083e-015 -1.02983e-006 1.01923e-006 -8.20632e-007 3.51797e-006 -2.1143e-006 -8.93011e-006 4.01167e-006 6.11939e-007 -9.1036e-006 -1.02983e-006 1.01923e-006 -8.20632e-007 3.51797e-006 -2.1143e-006 -8.93011e-006 4.01167e-006 6.11939e-007 -9.1036e-006 15.9235 5.88136 17.959 -13.3562 67.904 14.7147 2.31355 5.25251 -0.237875 -73.7497 -34.4946 -43.5358 -178.526 50.4643 169.01 -5.67397 32.2837 -4.74334 
9.00977 -8.93667 10.4134 105.415 -4.35275 164.598 1.39203e-005 20.7994 -4.55428e-006 -6.87378e-006 41.5988 -1.92457e-005 1.46417e-005 41.5988 3.2593e-006 8.03129e-005 30.9992 -6.222e-005 6.15357e-006 -35.0004 -1.10683e-005 -1.61063e-005 -2.57399e-006 -5.68393e-006 -45.9855 -2.65551 -85.9881 -16.6063 13.6967 -128.964 49.7952 14.4274 13.6601 -1.77925e-006 2.64837e-006 1.1459e-006 -3.53799e-006 -4.55062e-007 9.85524e-007 4.77083e-015 2.38542e-015 -3.18055e-015 -1.59028e-015 3.18055e-015 -3.18055e-015 -1.77925e-006 2.64837e-006 1.1459e-006 -3.53799e-006 -4.55062e-007 9.85524e-007 4.77083e-015 -6.36111e-015 6.36111e-015 -1.77925e-006 2.64837e-006 1.1459e-006 -3.53799e-006 -4.55062e-007 9.85524e-007 4.77083e-015 -6.36111e-015 6.36111e-015 -1.59028e-015 3.18055e-015 -3.18055e-015 -1.77925e-006 2.64837e-006 1.1459e-006 -3.53799e-006 -4.55062e-007 9.85524e-007 4.77083e-015 -6.36111e-015 6.36111e-015 -1.77925e-006 2.64837e-006 1.1459e-006 -3.53799e-006 -4.55062e-007 9.85524e-007 4.77083e-015 -6.36111e-015 6.36111e-015 8.25995 3.72199 17.8076 47.1052 15.8939 53.0407 2.91357 2.77199 -11.8543 39.1691 16.5901 -24.0708 -1.04212e-006 1.01004e-006 -8.18281e-007 -1.04212e-006 1.01004e-006 -8.18281e-007 3.18055e-015 6.36111e-015 -0 -3.18055e-015 -3.57812e-015 -4.77083e-015 -1.04212e-006 1.01004e-006 -8.18281e-007 -1.04212e-006 1.01004e-006 -8.18281e-007 6.36111e-015 3.57812e-015 -3.18055e-015 -1.04212e-006 1.01004e-006 -8.18281e-007 -1.04212e-006 1.01004e-006 -8.18281e-007 6.36111e-015 3.57812e-015 -3.18055e-015 -3.18055e-015 -3.57812e-015 -4.77083e-015 -1.04212e-006 1.01004e-006 -8.18281e-007 -1.04212e-006 1.01004e-006 -8.18281e-007 6.36111e-015 3.57812e-015 -3.18055e-015 -1.04212e-006 1.01004e-006 -8.18281e-007 -1.04212e-006 1.01004e-006 -8.18281e-007 6.36111e-015 3.57812e-015 -3.18055e-015 15.5814 6.55778 18.298 -12.9242 67.0673 14.1918 2.31253 5.15212 -0.237362 -73.9425 -34.541 -43.8273 -178.527 50.49 169.051 -5.65017 32.2786 -4.72511 
9.0116 -8.95644 10.0632 105.415 -4.35275 164.598 1.39203e-005 20.7994 -4.55428e-006 -6.87378e-006 41.5988 -1.92457e-005 1.46417e-005 41.5988 3.2593e-006 8.03129e-005 30.9992 -6.222e-005 6.15357e-006 -35.0004 -1.10683e-005 -1.61063e-005 -2.57399e-006 -5.68393e-006 -45.9855 -2.65551 -85.9881 -16.6063 13.6967 -128.964 49.7952 14.4274 13.6601 -1.77925e-006 2.64837e-006 1.1459e-006 -3.53799e-006 -4.55062e-007 9.85524e-007 4.77083e-015 2.38542e-015 -3.18055e-015 -1.59028e-015 3.18055e-015 -3.18055e-015 -1.77925e-006 2.64837e-006 1.1459e-006 -3.53799e-006 -4.55062e-007 9.85524e-007 4.77083e-015 -6.36111e-015 6.36111e-015 -1.77925e-006 2.64837e-006 1.1459e-006 -3.53799e-006 -4.55062e-007 9.85524e-007 4.77083e-015 -6.36111e-015 6.36111e-015 -1.59028e-015 3.18055e-015 -3.18055e-015 -1.77925e-006 2.64837e-006 1.1459e-006 -3.53799e-006 -4.55062e-007 9.85524e-007 4.77083e-015 -6.36111e-015 6.36111e-015 -1.77925e-006 2.64837e-006 1.1459e-006 -3.53799e-006 -4.55062e-007 9.85524e-007 4.77083e-015 -6.36111e-015 6.36111e-015 8.25995 3.72199 17.8076 47.1052 15.8939 53.0407 2.9644 2.74397 -12.9311 39.1691 16.5901 -24.0707 3.18055e-015 3.97569e-016 3.18055e-015 -1.54487e-031 -5.56597e-015 -1.59028e-015 -1.04344e-006 -2.00688e-006 5.91198e-006 3.18055e-015 3.97569e-016 3.18055e-015 -3.18055e-015 -2.46493e-014 7.95139e-015 3.18055e-015 7.15625e-015 -4.77083e-015 -1.04344e-006 -2.00688e-006 5.91198e-006 -3.18055e-015 -2.46493e-014 7.95139e-015 3.18055e-015 7.15625e-015 -4.77083e-015 -1.04344e-006 -2.00688e-006 5.91198e-006 3.18055e-015 3.97569e-016 3.18055e-015 -3.18055e-015 -2.46493e-014 7.95139e-015 3.18055e-015 7.15625e-015 -4.77083e-015 -1.04344e-006 -2.00688e-006 5.91198e-006 -3.18055e-015 -2.46493e-014 7.95139e-015 3.18055e-015 7.15625e-015 -4.77083e-015 -1.04344e-006 -2.00688e-006 5.91198e-006 15.2348 7.23098 18.6423 -12.5263 66.2307 13.7032 2.31242 5.05082 -0.236936 -74.1376 -34.5858 -44.1195 -178.526 50.5158 169.091 -5.62599 32.2742 -4.70671 
9.01378 -8.97658 9.71297 105.415 -4.35275 164.598 1.39203e-005 20.7994 -4.55428e-006 -6.87378e-006 41.5988 -1.92457e-005 1.46417e-005 41.5988 3.2593e-006 7.07489e-005 30.9992 -1.8096e-005 -9.5355e-006 -35.0004 -7.8873e-006 -1.61063e-005 -2.57399e-006 -5.68393e-006 -45.9855 -2.65551 -85.9881 -16.6063 13.6967 -128.964 49.7951 14.4274 13.6601 -1.77925e-006 2.64837e-006 1.1459e-006 -2.66887e-006 3.97255e-006 1.71886e-006 -8.89623e-007 1.32418e-006 5.72952e-007 3.18055e-015 7.95139e-015 9.54166e-015 -1.77925e-006 2.64837e-006 1.1459e-006 -2.66887e-006 3.97255e-006 1.71886e-006 -8.89623e-007 1.32418e-006 5.72952e-007 -1.77925e-006 2.64837e-006 1.1459e-006 -2.66887e-006 3.97255e-006 1.71886e-006 -8.89623e-007 1.32418e-006 5.72952e-007 3.18055e-015 7.95139e-015 9.54166e-015 -1.77925e-006 2.64837e-006 1.1459e-006 -2.66887e-006 3.97255e-006 1.71886e-006 -8.89623e-007 1.32418e-006 5.72952e-007 -1.77925e-006 2.64837e-006 1.1459e-006 -2.66887e-006 3.97255e-006 1.71886e-006 -8.89623e-007 1.32418e-006 5.72952e-007 8.25995 3.72199 17.8076 47.1052 15.8939 53.0407 3.01473 2.71499 -14.0087 39.1691 16.5901 -24.0707 -3.18055e-015 1.19271e-015 -5.56597e-015 -6.36111e-015 1.98785e-015 -6.36111e-015 -6.36111e-015 1.59028e-015 -2.38542e-015 -3.18055e-015 1.19271e-015 -5.56597e-015 -3.18055e-015 -1.07344e-014 -2.38542e-015 0 1.59028e-015 -0 6.36111e-015 -4.77083e-015 4.77083e-015 -3.18055e-015 -1.07344e-014 -2.38542e-015 0 1.59028e-015 -0 6.36111e-015 -4.77083e-015 4.77083e-015 -3.18055e-015 1.19271e-015 -5.56597e-015 -3.18055e-015 -1.07344e-014 -2.38542e-015 0 1.59028e-015 -0 6.36111e-015 -4.77083e-015 4.77083e-015 -3.18055e-015 -1.07344e-014 -2.38542e-015 0 1.59028e-015 -0 6.36111e-015 -4.77083e-015 4.77083e-015 14.8837 7.90082 18.9921 -12.1594 65.3945 13.2456 2.31329 4.94857 -0.236621 -74.3321 -34.632 -44.4109 -178.528 50.5409 169.133 -5.60145 32.2706 -4.68812 
9.01631 -8.99709 9.36281 105.415 -4.35275 164.598 1.39203e-005 20.7994 -4.55428e-006 -6.87378e-006 41.5988 -1.92457e-005 1.46417e-005 41.5988 3.2593e-006 8.03129e-005 30.9992 -6.222e-005 6.15357e-006 -35.0004 -1.10683e-005 -1.61063e-005 -2.57399e-006 -5.68393e-006 -45.9855 -2.65551 -85.9881 -16.6063 13.6967 -128.964 49.7951 14.4274 13.6601 -1.77925e-006 2.64837e-006 1.1459e-006 -4.42761e-006 8.6912e-007 1.55848e-006 -8.89623e-007 1.32418e-006 5.72952e-007 1.59028e-015 6.36111e-015 -0 -1.77925e-006 2.64837e-006 1.1459e-006 -4.42761e-006 8.6912e-007 1.55848e-006 -8.89623e-007 1.32418e-006 5.72953e-007 -1.77925e-006 2.64837e-006 1.1459e-006 -4.42761e-006 8.6912e-007 1.55848e-006 -8.89623e-007 1.32418e-006 5.72953e-007 1.59028e-015 6.36111e-015 -0 -1.77925e-006 2.64837e-006 1.1459e-006 -4.42761e-006 8.6912e-007 1.55848e-006 -8.89623e-007 1.32418e-006 5.72953e-007 -1.77925e-006 2.64837e-006 1.1459e-006 -4.42761e-006 8.6912e-007 1.55848e-006 -8.89623e-007 1.32418e-006 5.72953e-007 8.25995 3.72199 17.8076 47.1052 15.8939 53.0407 3.06733 2.68527 -15.087 39.169 16.5901 -24.0707 -3.18055e-015 2.38542e-015 6.36111e-015 -3.18055e-015 7.15625e-015 1.59028e-015 2.15697e-006 -1.96377e-006 1.62164e-006 -3.18055e-015 -7.95139e-016 1.59028e-015 -9.54166e-015 -7.95139e-016 1.59028e-015 -2.75869e-032 3.97569e-016 3.97569e-015 2.15697e-006 -1.96377e-006 1.62164e-006 -9.54166e-015 -7.95139e-016 1.59028e-015 -2.75869e-032 3.97569e-016 3.97569e-015 2.15697e-006 -1.96377e-006 1.62164e-006 -3.18055e-015 -7.95139e-016 1.59028e-015 -9.54166e-015 -7.95139e-016 1.59028e-015 -2.75869e-032 3.97569e-016 3.97569e-015 2.15697e-006 -1.96377e-006 1.62164e-006 -9.54166e-015 -7.95139e-016 1.59028e-015 -2.75869e-032 3.97569e-016 3.97569e-015 2.15697e-006 -1.96377e-006 1.62164e-006 14.528 8.56712 19.3473 -11.8205 64.559 12.8161 2.31514 4.84539 -0.236376 -74.5295 -34.6759 -44.7034 -178.528 50.5661 169.175 -5.57659 32.2675 -4.66936 
